<?xml version="1.0" encoding="UTF-8"?>
<svg id="Layer_1" data-name="Layer 1" xmlns="http://www.w3.org/2000/svg" viewBox="0 0 566.83 107.19">
  <path d="M6.59,1.11l1.65-.68h35.13l35.26.14,1.23.68c2.38,1.37,4.07,3.07,5.08,5.08l.82,1.65c.09,3.11.14,7.68.14,13.72s.04,10.61.14,13.72l.82,1.78c1.92,4.3,5.44,6.45,10.57,6.45,1.74,0,3.52.67,5.35,1.99,1.83,1.33,3.06,2.86,3.71,4.6.36.82.55,4.25.55,10.29v29.5c0,6.13-.18,9.6-.55,10.43-.92,2.47-2.65,4.35-5.21,5.63l-1.79.96H7.96l-1.51-.69c-2.93-1.37-4.89-3.62-5.9-6.72-.18-.55-.27-15.87-.27-45.97v-16.19c0-14.82.07-23.67.21-26.55.14-2.88.57-4.82,1.3-5.83.09-.18.18-.32.27-.41,1.01-1.46,2.51-2.65,4.53-3.57ZM79.72,65.74l-1.78-.82h-23.33c-15.83,0-23.92.05-24.29.14-2.11.64-4,1.88-5.69,3.71-1.7,1.83-2.54,3.98-2.54,6.45,0,1.47.32,2.88.96,4.26,1.56,3.39,4.16,5.44,7.82,6.18.82.18,8.92.27,24.29.27l22.5-.14,1.79-.82c4.21-1.92,6.31-5.17,6.31-9.74s-2.01-7.55-6.04-9.47ZM58.59,23.34l-1.51-.82h-18.52c-4.58,0-7.41.07-8.51.21-1.1.14-2.2.62-3.29,1.44-3.02,2.2-4.53,5.17-4.53,8.92,0,1.65.32,3.11.96,4.39,1.1,2.29,2.88,4.03,5.35,5.21l1.79.82h21.41c2.47,0,3.89-.04,4.25-.14,2.28-.46,4.3-1.62,6.04-3.5,1.74-1.87,2.61-4.14,2.61-6.79,0-1.28-.27-2.7-.82-4.26-1.01-2.38-2.74-4.21-5.21-5.49Z"/>
  <path d="M123.12.42c.46-.18,1.78-.27,3.98-.27,2.01.09,3.52.41,4.53.96,2.56,1.37,4.44,3.57,5.63,6.59.27.55.46,12.44.55,35.68l.14,34.72.82,1.65c1.1,2.11,2.83,3.75,5.21,4.94l1.65.82c7.68.09,19.19.14,34.51.14s26.83.05,34.51.14l1.92,1.1c4.02,2.01,6.04,5.21,6.04,9.61,0,4.94-2.38,8.28-7.13,10.02-.92.36-16.42.55-46.52.55h-45.01l-2.06-.96c-2.2-1.01-3.93-2.74-5.21-5.21l-.82-1.65V7.69l.69-1.51c1.46-2.74,3.66-4.67,6.59-5.76Z"/>
  <path d="M251.13,53.1v-23.71l.82-1.36c1.21-2.33,2.96-3.93,5.24-4.85l1.79-.78h24.05V.43h-7.81c-2.96,0-5.58,0-7.76.05-2.18.05-4.17.1-5.96.1h-5.96c-4.56.44-9.12,2.23-13.58,5.33-5.67,4.03-9.46,9.41-11.25,16.2l-.68,2.62v58.44l.82,2.62c1.55,5.04,4.12,9.31,7.81,12.9,3.64,3.54,8,6.01,13.04,7.42l2.47.68h28.85v-21.82c-2.18,0-4.85,0-7.95.05-3.35.05-5.48.1-6.4.1-5.09,0-8.34-.15-9.65-.34-1.31-.24-2.57-.78-3.78-1.6-.73-.44-1.55-1.26-2.47-2.47-.44-.73-.73-1.16-.87-1.36-.15-.19-.29-.73-.49-1.6-.19-.87-.29-1.99-.34-3.35-.05-1.36-.1-3.39-.1-6.06,0-.87.05-3.06.1-6.45.05-3.35.05-6.3.05-8.78Z"/>
  <path d="M427.16,61.88c.05,3.39.1,5.58.1,6.45,0,2.67-.05,4.7-.1,6.06-.05,1.36-.15,2.47-.34,3.35-.19.87-.34,1.41-.49,1.6-.15.19-.44.63-.87,1.36-.92,1.21-1.75,2.04-2.47,2.47-1.21.82-2.47,1.36-3.78,1.6-1.31.19-4.56.34-9.65.34-.92,0-3.06-.05-6.4-.1-3.1-.05-5.77-.05-7.95-.05v21.82s28.85,0,28.85,0l2.47-.68c5.04-1.41,9.41-3.88,13.04-7.42,3.69-3.59,6.26-7.86,7.81-12.9l.82-2.62V24.73s-.68-2.62-.68-2.62c-1.79-6.79-5.58-12.17-11.25-16.2-4.46-3.1-9.02-4.9-13.58-5.33h-5.96c-1.79,0-3.78-.05-5.96-.1-2.18-.05-4.8-.05-7.76-.05h-7.81s0,21.97,0,21.97h24.05s1.79.78,1.79.78c2.28.92,4.03,2.52,5.24,4.85l.82,1.36v23.71c0,2.47,0,5.43.05,8.78Z"/>
  <path d="M467.34,1.11c.82-.27,16.19-.41,46.11-.41h28.4c11.07,0,17.02.18,17.84.55,3.47,1.28,5.67,3.52,6.58,6.72.18.64.27,16.01.27,46.1v44.87l-.82,1.78c-1.92,4.21-5.12,6.31-9.6,6.31-1.1,0-1.92-.09-2.47-.27-3.39-.82-5.86-2.97-7.41-6.45-.36-.91-.6-12.76-.69-35.54l-.14-34.44-.82-1.65c-2.1-4.12-5.3-6.17-9.6-6.17-4.85,0-8.19,2.47-10.02,7.41-.27.64-.46,12.4-.55,35.26l-.14,34.31-1.1,1.92c-2.19,3.75-5.26,5.63-9.19,5.63-1.83,0-3.34-.32-4.53-.96-2.47-1.28-4.25-3.2-5.35-5.76l-.69-1.65v-33.89c0-22.59-.18-34.3-.55-35.13-.55-1.46-1.49-2.83-2.81-4.12s-2.68-2.15-4.05-2.61c-.46-.18-1.64-.27-3.57-.27-2.29,0-4.28.64-5.97,1.92-1.69,1.28-2.9,2.84-3.63,4.66l-.69,1.65c0,7.59-.05,19.03-.14,34.3-.09,15.28-.14,26.71-.14,34.31l-.96,1.92c-1.83,3.66-4.99,5.49-9.47,5.49-2.47,0-4.71-.67-6.72-1.99-2.01-1.33-3.39-3.14-4.12-5.42-.27-1.01-.41-14-.41-38.97,0-33.76.18-51.18.55-52.28.45-1.65,1.3-3.13,2.54-4.46,1.23-1.33,2.58-2.22,4.04-2.68Z"/>
  <g>
    <circle cx="313.33" cy="53.61" r="14.69"/>
    <circle cx="364.91" cy="53.61" r="14.69"/>
  </g>
</svg>